<mxfile host="app.diagrams.net" modified="2024-02-10T07:24:20.603Z" agent="Mozilla/5.0 (Windows NT 10.0; Win64; x64) AppleWebKit/537.36 (KHTML, like Gecko) Chrome/121.0.0.0 Safari/537.36 Edg/121.0.0.0" etag="V3bvXGTHuf25pSaFLg-7" version="23.1.2" type="device">
  <diagram name="Страница — 1" id="2yoBR8zhtweEhLvwHwkV">
    <mxGraphModel dx="689" dy="624" grid="1" gridSize="10" guides="1" tooltips="1" connect="1" arrows="1" fold="1" page="1" pageScale="1" pageWidth="827" pageHeight="1169" math="0" shadow="0">
      <root>
        <mxCell id="0" />
        <mxCell id="1" parent="0" />
        <mxCell id="3Zih6oN-DW-a6KECGXpA-1" value="User" style="shape=umlActor;verticalLabelPosition=bottom;verticalAlign=top;html=1;outlineConnect=0;" vertex="1" parent="1">
          <mxGeometry x="200" y="90" width="30" height="60" as="geometry" />
        </mxCell>
        <mxCell id="3Zih6oN-DW-a6KECGXpA-25" style="rounded=0;orthogonalLoop=1;jettySize=auto;html=1;entryX=0.5;entryY=0;entryDx=0;entryDy=0;endArrow=none;endFill=0;" edge="1" parent="1" target="3Zih6oN-DW-a6KECGXpA-10">
          <mxGeometry relative="1" as="geometry">
            <mxPoint x="150" y="320" as="sourcePoint" />
          </mxGeometry>
        </mxCell>
        <mxCell id="3Zih6oN-DW-a6KECGXpA-2" value="Unregister user" style="shape=umlActor;verticalLabelPosition=bottom;verticalAlign=top;html=1;outlineConnect=0;" vertex="1" parent="1">
          <mxGeometry x="130" y="230" width="30" height="60" as="geometry" />
        </mxCell>
        <mxCell id="3Zih6oN-DW-a6KECGXpA-16" style="rounded=0;orthogonalLoop=1;jettySize=auto;html=1;entryX=0.5;entryY=0;entryDx=0;entryDy=0;endArrow=none;endFill=0;" edge="1" parent="1" target="3Zih6oN-DW-a6KECGXpA-11">
          <mxGeometry relative="1" as="geometry">
            <mxPoint x="310" y="320" as="sourcePoint" />
          </mxGeometry>
        </mxCell>
        <mxCell id="3Zih6oN-DW-a6KECGXpA-20" style="rounded=0;orthogonalLoop=1;jettySize=auto;html=1;endArrow=none;endFill=0;" edge="1" parent="1" source="3Zih6oN-DW-a6KECGXpA-3" target="3Zih6oN-DW-a6KECGXpA-8">
          <mxGeometry relative="1" as="geometry" />
        </mxCell>
        <mxCell id="3Zih6oN-DW-a6KECGXpA-21" style="rounded=0;orthogonalLoop=1;jettySize=auto;html=1;entryX=0;entryY=0.5;entryDx=0;entryDy=0;endArrow=none;endFill=0;" edge="1" parent="1" source="3Zih6oN-DW-a6KECGXpA-3" target="3Zih6oN-DW-a6KECGXpA-9">
          <mxGeometry relative="1" as="geometry" />
        </mxCell>
        <mxCell id="3Zih6oN-DW-a6KECGXpA-22" style="rounded=0;orthogonalLoop=1;jettySize=auto;html=1;entryX=0;entryY=0.5;entryDx=0;entryDy=0;endArrow=none;endFill=0;" edge="1" parent="1" source="3Zih6oN-DW-a6KECGXpA-3" target="3Zih6oN-DW-a6KECGXpA-14">
          <mxGeometry relative="1" as="geometry" />
        </mxCell>
        <mxCell id="3Zih6oN-DW-a6KECGXpA-30" style="rounded=0;orthogonalLoop=1;jettySize=auto;html=1;endArrow=none;endFill=0;" edge="1" parent="1" source="3Zih6oN-DW-a6KECGXpA-3" target="3Zih6oN-DW-a6KECGXpA-15">
          <mxGeometry relative="1" as="geometry" />
        </mxCell>
        <mxCell id="3Zih6oN-DW-a6KECGXpA-34" style="rounded=0;orthogonalLoop=1;jettySize=auto;html=1;endArrow=none;endFill=0;" edge="1" parent="1" source="3Zih6oN-DW-a6KECGXpA-3" target="3Zih6oN-DW-a6KECGXpA-33">
          <mxGeometry relative="1" as="geometry" />
        </mxCell>
        <mxCell id="3Zih6oN-DW-a6KECGXpA-35" style="rounded=0;orthogonalLoop=1;jettySize=auto;html=1;entryX=0;entryY=0.5;entryDx=0;entryDy=0;endArrow=none;endFill=0;" edge="1" parent="1" source="3Zih6oN-DW-a6KECGXpA-3" target="3Zih6oN-DW-a6KECGXpA-32">
          <mxGeometry relative="1" as="geometry" />
        </mxCell>
        <mxCell id="3Zih6oN-DW-a6KECGXpA-38" style="rounded=0;orthogonalLoop=1;jettySize=auto;html=1;endArrow=block;endFill=1;" edge="1" parent="1" source="3Zih6oN-DW-a6KECGXpA-3">
          <mxGeometry relative="1" as="geometry">
            <mxPoint x="240" y="160" as="targetPoint" />
          </mxGeometry>
        </mxCell>
        <mxCell id="3Zih6oN-DW-a6KECGXpA-3" value="Register User" style="shape=umlActor;verticalLabelPosition=bottom;verticalAlign=top;html=1;outlineConnect=0;" vertex="1" parent="1">
          <mxGeometry x="290" y="230" width="30" height="60" as="geometry" />
        </mxCell>
        <mxCell id="3Zih6oN-DW-a6KECGXpA-7" value="View post" style="ellipse;whiteSpace=wrap;html=1;" vertex="1" parent="1">
          <mxGeometry x="492.5" y="100" width="90" height="40" as="geometry" />
        </mxCell>
        <mxCell id="3Zih6oN-DW-a6KECGXpA-8" value="Create post" style="ellipse;whiteSpace=wrap;html=1;" vertex="1" parent="1">
          <mxGeometry x="364" y="160" width="100" height="50" as="geometry" />
        </mxCell>
        <mxCell id="3Zih6oN-DW-a6KECGXpA-9" value="Drop post" style="ellipse;whiteSpace=wrap;html=1;" vertex="1" parent="1">
          <mxGeometry x="510" y="280" width="100" height="40" as="geometry" />
        </mxCell>
        <mxCell id="3Zih6oN-DW-a6KECGXpA-10" value="Register" style="ellipse;whiteSpace=wrap;html=1;" vertex="1" parent="1">
          <mxGeometry x="120" y="400" width="70" height="40" as="geometry" />
        </mxCell>
        <mxCell id="3Zih6oN-DW-a6KECGXpA-11" value="Login" style="ellipse;whiteSpace=wrap;html=1;" vertex="1" parent="1">
          <mxGeometry x="290" y="350" width="74" height="30" as="geometry" />
        </mxCell>
        <mxCell id="3Zih6oN-DW-a6KECGXpA-13" value="Reset password" style="ellipse;whiteSpace=wrap;html=1;" vertex="1" parent="1">
          <mxGeometry x="290" y="440" width="110" height="40" as="geometry" />
        </mxCell>
        <mxCell id="3Zih6oN-DW-a6KECGXpA-14" value="Add friend" style="ellipse;whiteSpace=wrap;html=1;" vertex="1" parent="1">
          <mxGeometry x="492.5" y="330" width="90" height="40" as="geometry" />
        </mxCell>
        <mxCell id="3Zih6oN-DW-a6KECGXpA-15" value="Drop friend" style="ellipse;whiteSpace=wrap;html=1;" vertex="1" parent="1">
          <mxGeometry x="414" y="380" width="90" height="40" as="geometry" />
        </mxCell>
        <mxCell id="3Zih6oN-DW-a6KECGXpA-27" value="" style="endArrow=classic;dashed=1;html=1;dashPattern=1 3;strokeWidth=2;rounded=0;exitX=0.601;exitY=-0.069;exitDx=0;exitDy=0;exitPerimeter=0;endFill=1;" edge="1" parent="1" source="3Zih6oN-DW-a6KECGXpA-13" target="3Zih6oN-DW-a6KECGXpA-11">
          <mxGeometry width="50" height="50" relative="1" as="geometry">
            <mxPoint x="310" y="450" as="sourcePoint" />
            <mxPoint x="360" y="400" as="targetPoint" />
          </mxGeometry>
        </mxCell>
        <mxCell id="3Zih6oN-DW-a6KECGXpA-28" value="&amp;lt;&amp;lt;extend&amp;gt;&amp;gt;" style="text;html=1;strokeColor=none;fillColor=none;align=center;verticalAlign=middle;whiteSpace=wrap;rounded=0;" vertex="1" parent="1">
          <mxGeometry x="274" y="400" width="60" height="30" as="geometry" />
        </mxCell>
        <mxCell id="3Zih6oN-DW-a6KECGXpA-29" style="rounded=0;orthogonalLoop=1;jettySize=auto;html=1;entryX=0.006;entryY=0.661;entryDx=0;entryDy=0;entryPerimeter=0;endArrow=none;endFill=0;" edge="1" parent="1" source="3Zih6oN-DW-a6KECGXpA-1" target="3Zih6oN-DW-a6KECGXpA-7">
          <mxGeometry relative="1" as="geometry" />
        </mxCell>
        <mxCell id="3Zih6oN-DW-a6KECGXpA-32" value="Create comment" style="ellipse;whiteSpace=wrap;html=1;" vertex="1" parent="1">
          <mxGeometry x="520" y="230" width="125" height="40" as="geometry" />
        </mxCell>
        <mxCell id="3Zih6oN-DW-a6KECGXpA-33" value="Drop comment" style="ellipse;whiteSpace=wrap;html=1;" vertex="1" parent="1">
          <mxGeometry x="475" y="180" width="125" height="40" as="geometry" />
        </mxCell>
        <mxCell id="3Zih6oN-DW-a6KECGXpA-37" style="rounded=0;orthogonalLoop=1;jettySize=auto;html=1;endArrow=block;endFill=1;" edge="1" parent="1" source="3Zih6oN-DW-a6KECGXpA-2">
          <mxGeometry relative="1" as="geometry">
            <mxPoint x="190" y="160" as="targetPoint" />
          </mxGeometry>
        </mxCell>
      </root>
    </mxGraphModel>
  </diagram>
</mxfile>
